<?xml version="1.0" encoding="utf-8"?>
<!-- Generator: Adobe Illustrator 21.0.2, SVG Export Plug-In . SVG Version: 6.00 Build 0)  -->
<svg version="1.1"
	 id="Layer_1" xmlns:cc="http://creativecommons.org/ns#" xmlns:dc="http://purl.org/dc/elements/1.1/" xmlns:inkscape="http://www.inkscape.org/namespaces/inkscape" xmlns:rdf="http://www.w3.org/1999/02/22-rdf-syntax-ns#" xmlns:sodipodi="http://sodipodi.sourceforge.net/DTD/sodipodi-0.dtd" xmlns:svg="http://www.w3.org/2000/svg"
	 xmlns="http://www.w3.org/2000/svg" xmlns:xlink="http://www.w3.org/1999/xlink" x="0px" y="0px" viewBox="0 0 74 74"
	 style="enable-background:new 0 0 74 74;" xml:space="preserve">
<style type="text/css">
	.st0{fill:url(#Rounded_Rectangle_2_copy_6_27_);}
	.st1{fill:#53AD5F;}
	.st2{fill:#E6E7E8;}
	.st3{fill:#6FC36F;}
	.st4{fill:#FFFFFF;}
	.st5{fill:#83B359;}
	.st6{fill:#9DCB71;}
	.st7{fill:#5EA3CB;}
	.st8{fill:#77BDDC;}
	.st9{fill:#C46854;}
	.st10{fill:#D4856A;}
	.st11{fill:#164C7A;}
	.st12{fill:#2E6799;}
	.st13{fill:#C4504B;}
	.st14{fill:#D56862;}
	.st15{fill:#4C8FBF;}
	.st16{fill:#61AED4;}
	.st17{fill:#009EDF;}
	.st18{fill:#D9A14A;}
	.st19{fill:#ECB865;}
	.st20{fill:#4A5C87;}
	.st21{fill:#526A97;}
	.st22{fill:#086DB0;}
	.st23{fill:#1787D2;}
	.st24{fill:#5999A3;}
	.st25{fill:#60B4BB;}
	.st26{enable-background:new    ;}
	.st27{fill:#6A6794;}
	.st28{fill:#807DA8;}
	.st29{fill:url(#SVGID_1_);}
	.st30{fill:url(#SVGID_2_);}
	.st31{fill:url(#SVGID_3_);}
	.st32{fill:url(#SVGID_4_);}
	.st33{fill:url(#SVGID_5_);}
	.st34{fill:url(#SVGID_6_);}
	.st35{fill:url(#SVGID_7_);}
	.st36{fill:url(#SVGID_8_);}
	.st37{fill:url(#SVGID_9_);}
	.st38{fill:url(#Rounded_Rectangle_2_copy_6_28_);}
	.st39{fill:url(#Rounded_Rectangle_2_copy_6_29_);}
	.st40{fill:url(#Rounded_Rectangle_2_copy_6_30_);}
	.st41{fill:url(#Rounded_Rectangle_2_copy_6_31_);}
	.st42{fill:url(#Rounded_Rectangle_2_copy_6_32_);}
	.st43{fill:url(#Rounded_Rectangle_2_copy_6_33_);}
	.st44{fill:url(#Rounded_Rectangle_2_copy_6_34_);}
	.st45{fill:url(#SVGID_10_);}
	.st46{fill:url(#Rounded_Rectangle_2_copy_6_35_);}
	.st47{fill:url(#Rounded_Rectangle_2_copy_6_36_);}
	.st48{fill:url(#Rounded_Rectangle_2_copy_6_37_);}
	.st49{fill:url(#Rounded_Rectangle_2_copy_6_38_);}
	.st50{fill:url(#Rounded_Rectangle_2_copy_6_39_);}
	.st51{fill:url(#Rounded_Rectangle_2_copy_6_40_);}
	.st52{fill:url(#Rounded_Rectangle_2_copy_6_41_);}
	.st53{fill:url(#Rounded_Rectangle_2_copy_6_42_);}
	.st54{fill:url(#Rounded_Rectangle_2_copy_6_43_);}
	.st55{fill:url(#Rounded_Rectangle_2_copy_6_44_);}
	.st56{fill:url(#SVGID_11_);}
	.st57{fill:url(#SVGID_12_);}
	.st58{fill:url(#SVGID_13_);}
	.st59{fill:url(#SVGID_14_);}
	.st60{fill:url(#Rounded_Rectangle_2_copy_6_45_);}
	.st61{fill:url(#SVGID_15_);}
	.st62{fill:url(#Rounded_Rectangle_2_copy_6_46_);}
	.st63{fill:url(#SVGID_16_);}
	.st64{fill:url(#Rounded_Rectangle_2_copy_6_47_);}
	.st65{fill:url(#SVGID_17_);}
	.st66{fill:url(#Rounded_Rectangle_2_copy_6_48_);}
	.st67{fill:url(#SVGID_18_);}
	.st68{fill:url(#Rounded_Rectangle_2_copy_6_49_);}
	.st69{fill:url(#SVGID_19_);}
	.st70{fill:url(#Rounded_Rectangle_2_copy_6_50_);}
	.st71{fill:url(#SVGID_20_);}
	.st72{fill:url(#Rounded_Rectangle_2_copy_6_51_);}
	.st73{fill:url(#SVGID_21_);}
	.st74{fill:url(#SVGID_22_);}
	.st75{fill:url(#SVGID_23_);}
	.st76{fill:url(#SVGID_24_);}
	.st77{fill:url(#SVGID_25_);}
	.st78{fill:url(#Rounded_Rectangle_2_copy_6_52_);}
	.st79{fill:url(#SVGID_26_);}
	.st80{fill:url(#SVGID_27_);}
	.st81{fill:url(#SVGID_28_);}
	.st82{fill:url(#SVGID_29_);}
	.st83{fill:url(#SVGID_30_);}
	.st84{fill:url(#SVGID_31_);}
	.st85{fill:url(#SVGID_32_);}
	.st86{fill:url(#SVGID_33_);}
	.st87{fill:#0069EC;}
	.st88{fill:#007EE5;}
</style>
<g>
	<path class="st87" d="M0,40.7v26.722C0,71.04,2.96,74,6.578,74h60.844C71.04,74,74,71.04,74,67.422V6.578C74,2.96,71.04,0,67.422,0
		H6.578C2.96,0,0,2.96,0,6.578V40.7z"/>
	<path class="st2" d="M61.646,26.717H23v-9.275h33.646c2.761,0,5,2.239,5,5V26.717z"/>
	<g>
		<path class="st88" d="M5.08,13.045h25.692c1.507,0,2.934,0.669,3.882,1.821l4.995,6.066c0.949,1.152,2.375,1.821,3.882,1.821
			h25.473c2.759,0,4.996,2.201,4.996,4.916v41.415C74,71.799,71.763,74,69.004,74H5.394C2.646,74,0.017,71.787,0,69.084L0.083,17.99
			C0.067,15.264,2.308,13.045,5.08,13.045z"/>
	</g>
</g>
<g>
	<path class="st4" d="M26.636,44.235l-7.107-5.691l10.278-6.711L37,37.836L26.636,44.235L37,50.635l-7.192,6.004L19.53,49.927
		L26.636,44.235L26.636,44.235z M37,50.635l7.192,6.004l10.278-6.711l-7.107-5.692L37,50.635z M54.47,38.544l-10.278-6.711
		L37,37.836l10.363,6.399L54.47,38.544z M37.021,51.926l-7.213,5.986l-3.086-2.015v2.259l10.299,6.177l10.3-6.177v-2.259
		l-3.086,2.015L37.021,51.926z"/>
</g>
</svg>
